HIERARCHY
ROOT Hips
{
    OFFSET   0.000000   0.000000   0.000000
    CHANNELS 6 Xposition Yposition Zposition Zrotation Xrotation Yrotation
    JOINT Chest
    {
        OFFSET   0.000000   8.007230   0.000000
        CHANNELS 3 Zrotation Xrotation Yrotation
        JOINT Chest2
        {
            OFFSET   0.000000  22.077100   0.000000
            CHANNELS 3 Zrotation Xrotation Yrotation
            JOINT Neck
            {
                OFFSET   0.000000  23.254800  -0.000021
                CHANNELS 3 Zrotation Xrotation Yrotation
                JOINT Head
                {
                    OFFSET   0.000000  14.370000   1.956610
                    CHANNELS 3 Zrotation Xrotation Yrotation
                    End Site
                    {
                        OFFSET   0.000000  19.566000   0.000000
                    }
                }
            }
            JOINT LeftCollar
            {
                OFFSET   3.911900  19.017000  -0.467063
                CHANNELS 3 Zrotation Xrotation Yrotation
                JOINT LeftShoulder
                {
                    OFFSET  10.383700   0.000000   0.000000
                    CHANNELS 3 Zrotation Xrotation Yrotation
                    JOINT LeftElbow
                    {
                        OFFSET  26.662100   0.001529   0.000325
                        CHANNELS 3 Zrotation Xrotation Yrotation
                        JOINT LeftWrist
                        {
                            OFFSET  28.869000  -0.000011  -0.000096
                            CHANNELS 3 Zrotation Xrotation Yrotation
                            JOINT LeftFinger0
                            {
                                OFFSET   2.044650  -2.323460   3.252850
                                CHANNELS 3 Zrotation Xrotation Yrotation
                                JOINT LeftFinger01
                                {
                                    OFFSET   3.088130   0.000000   0.000000
                                    CHANNELS 3 Zrotation Xrotation Yrotation
                                    JOINT LeftFinger02
                                    {
                                        OFFSET   2.639460   0.000000   0.000000
                                        CHANNELS 3 Zrotation Xrotation Yrotation
                                        End Site
                                        {
                                            OFFSET   2.582190   0.000000   0.000000
                                        }
                                    }
                                }
                            }
                            JOINT LeftFinger1
                            {
                                OFFSET   8.364480   0.000000   3.252850
                                CHANNELS 3 Zrotation Xrotation Yrotation
                                JOINT LeftFinger11
                                {
                                    OFFSET   4.646930   0.000000   0.000000
                                    CHANNELS 3 Zrotation Xrotation Yrotation
                                    JOINT LeftFinger12
                                    {
                                        OFFSET   2.323460   0.000000   0.000000
                                        CHANNELS 3 Zrotation Xrotation Yrotation
                                        End Site
                                        {
                                            OFFSET   2.273050   0.000000   0.000000
                                        }
                                    }
                                }
                            }
                            JOINT LeftFinger2
                            {
                                OFFSET   8.364480   0.000016   1.078090
                                CHANNELS 3 Zrotation Xrotation Yrotation
                                JOINT LeftFinger21
                                {
                                    OFFSET   5.111620   0.000000   0.000000
                                    CHANNELS 3 Zrotation Xrotation Yrotation
                                    JOINT LeftFinger22
                                    {
                                        OFFSET   2.788160   0.000017   0.000000
                                        CHANNELS 3 Zrotation Xrotation Yrotation
                                        End Site
                                        {
                                            OFFSET   2.727660   0.000000   0.000000
                                        }
                                    }
                                }
                            }
                            JOINT LeftFinger3
                            {
                                OFFSET   7.899780   0.000015  -1.078090
                                CHANNELS 3 Zrotation Xrotation Yrotation
                                JOINT LeftFinger31
                                {
                                    OFFSET   4.646920   0.000000   0.000000
                                    CHANNELS 3 Zrotation Xrotation Yrotation
                                    JOINT LeftFinger32
                                    {
                                        OFFSET   2.323470   0.000000   0.000000
                                        CHANNELS 3 Zrotation Xrotation Yrotation
                                        End Site
                                        {
                                            OFFSET   2.273050   0.000000   0.000000
                                        }
                                    }
                                }
                            }
                            JOINT LeftFinger4
                            {
                                OFFSET   7.435090   0.000000  -3.252850
                                CHANNELS 3 Zrotation Xrotation Yrotation
                                JOINT LeftFinger41
                                {
                                    OFFSET   3.717550   0.000000   0.000000
                                    CHANNELS 3 Zrotation Xrotation Yrotation
                                    JOINT LeftFinger42
                                    {
                                        OFFSET   1.858760   0.000000   0.000000
                                        CHANNELS 3 Zrotation Xrotation Yrotation
                                        End Site
                                        {
                                            OFFSET   1.818440   0.000000   0.000000
                                        }
                                    }
                                }
                            }
                        }
                    }
                }
            }
            JOINT RightCollar
            {
                OFFSET  -3.911900  19.017000  -0.467062
                CHANNELS 3 Zrotation Xrotation Yrotation
                JOINT RightShoulder
                {
                    OFFSET -10.383700   0.000015   0.000000
                    CHANNELS 3 Zrotation Xrotation Yrotation
                    JOINT RightElbow
                    {
                        OFFSET -26.662100   0.001341   0.000385
                        CHANNELS 3 Zrotation Xrotation Yrotation
                        JOINT RightWrist
                        {
                            OFFSET -28.869000   0.000025  -0.000080
                            CHANNELS 3 Zrotation Xrotation Yrotation
                            JOINT RightFinger0
                            {
                                OFFSET  -2.044650  -2.323490   3.252850
                                CHANNELS 3 Zrotation Xrotation Yrotation
                                JOINT RightFinger01
                                {
                                    OFFSET  -3.088130   0.000000   0.000000
                                    CHANNELS 3 Zrotation Xrotation Yrotation
                                    JOINT RightFinger02
                                    {
                                        OFFSET  -2.639460   0.000000   0.000000
                                        CHANNELS 3 Zrotation Xrotation Yrotation
                                        End Site
                                        {
                                            OFFSET  -2.582190   0.000000   0.000000
                                        }
                                    }
                                }
                            }
                            JOINT RightFinger1
                            {
                                OFFSET  -8.364480   0.000000   3.252850
                                CHANNELS 3 Zrotation Xrotation Yrotation
                                JOINT RightFinger11
                                {
                                    OFFSET  -4.646930   0.000000   0.000000
                                    CHANNELS 3 Zrotation Xrotation Yrotation
                                    JOINT RightFinger12
                                    {
                                        OFFSET  -2.323470   0.000000   0.000000
                                        CHANNELS 3 Zrotation Xrotation Yrotation
                                        End Site
                                        {
                                            OFFSET  -2.273050   0.000000   0.000000
                                        }
                                    }
                                }
                            }
                            JOINT RightFinger2
                            {
                                OFFSET  -8.364480   0.000000   1.078090
                                CHANNELS 3 Zrotation Xrotation Yrotation
                                JOINT RightFinger21
                                {
                                    OFFSET  -5.111610   0.000000   0.000000
                                    CHANNELS 3 Zrotation Xrotation Yrotation
                                    JOINT RightFinger22
                                    {
                                        OFFSET  -2.788160   0.000000   0.000000
                                        CHANNELS 3 Zrotation Xrotation Yrotation
                                        End Site
                                        {
                                            OFFSET  -2.727660   0.000000   0.000000
                                        }
                                    }
                                }
                            }
                            JOINT RightFinger3
                            {
                                OFFSET  -7.899780   0.000000  -1.078090
                                CHANNELS 3 Zrotation Xrotation Yrotation
                                JOINT RightFinger31
                                {
                                    OFFSET  -4.646920   0.000000   0.000000
                                    CHANNELS 3 Zrotation Xrotation Yrotation
                                    JOINT RightFinger32
                                    {
                                        OFFSET  -2.323470   0.000000   0.000000
                                        CHANNELS 3 Zrotation Xrotation Yrotation
                                        End Site
                                        {
                                            OFFSET  -2.273050   0.000000   0.000000
                                        }
                                    }
                                }
                            }
                            JOINT RightFinger4
                            {
                                OFFSET  -7.435090   0.000000  -3.252850
                                CHANNELS 3 Zrotation Xrotation Yrotation
                                JOINT RightFinger41
                                {
                                    OFFSET  -3.717550   0.000000   0.000000
                                    CHANNELS 3 Zrotation Xrotation Yrotation
                                    JOINT RightFinger42
                                    {
                                        OFFSET  -1.858770   0.000000   0.000000
                                        CHANNELS 3 Zrotation Xrotation Yrotation
                                        End Site
                                        {
                                            OFFSET  -1.818440   0.000000   0.000000
                                        }
                                    }
                                }
                            }
                        }
                    }
                }
            }
        }
    }
    JOINT LeftHip
    {
        OFFSET   9.783010   0.000000   0.000000
        CHANNELS 3 Zrotation Xrotation Yrotation
        JOINT LeftKnee
        {
            OFFSET   0.000070 -41.789100   0.000028
            CHANNELS 3 Zrotation Xrotation Yrotation
            JOINT LeftAnkle
            {
                OFFSET   0.000087 -41.133200  -0.000100
                CHANNELS 3 Zrotation Xrotation Yrotation
                JOINT LeftToe
                {
                    OFFSET   0.000000  -6.358960  14.674500
                    CHANNELS 3 Zrotation Xrotation Yrotation
                    End Site
                    {
                        OFFSET   0.000000   0.000000   3.913200
                    }
                }
            }
        }
    }
    JOINT RightHip
    {
        OFFSET  -9.783020   0.000000   0.000000
        CHANNELS 3 Zrotation Xrotation Yrotation
        JOINT RightKnee
        {
            OFFSET   0.000044 -41.789100  -0.000870
            CHANNELS 3 Zrotation Xrotation Yrotation
            JOINT RightAnkle
            {
                OFFSET  -0.000090 -41.133200  -0.000245
                CHANNELS 3 Zrotation Xrotation Yrotation
                JOINT RightToe
                {
                    OFFSET   0.000000  -6.358960  14.674500
                    CHANNELS 3 Zrotation Xrotation Yrotation
                    End Site
                    {
                        OFFSET   0.000000   0.000000   3.913200
                    }
                }
            }
        }
    }
}
MOTION
Frames: 4
Frame Time:   0.016667
  0.321724  89.397000   0.277247  -1.026250   0.240213   4.513160   0.889796   1.803920  -0.609871   1.800100   3.598050  -1.248640  -1.218030   0.965511   0.030766  -2.005410   1.954800   1.445750  -5.149130   1.662320   8.371220 -79.580400   3.602140  -0.182387   0.225407   6.161220 -16.789600   7.072870  -3.344440  -1.979950  39.506800  32.769200 -51.738500 -32.737800  -0.003398   0.007538 -11.368900  -0.001846   0.002083 -26.530900  -1.642670   3.286460 -21.746100   0.002017   0.006491 -15.222300   0.007536   0.003837 -28.381500  -3.987280   7.335240 -37.869500  -0.001482  -0.002230 -25.221100  -0.001767  -0.001154 -25.213000  -3.581250   7.557120 -25.449500  -0.006376   0.007622 -16.949400  -0.007167   0.010106 -25.251800  -3.868800   8.140710 -38.291000  -0.003615  -0.000078 -25.501800  -0.004904  -0.004634   7.897030   5.241560   7.392440  67.967400  -2.514860  -1.052310   3.174840  -2.867350  15.510300 -13.399900   0.173401   1.517100 -57.062900  49.991600  99.920000  20.447300   0.001594  -0.002799   5.223650   0.000832  -0.009515  28.727200   0.730707   1.332780  23.511600  -0.003907  -0.008411  16.465200  -0.005362  -0.003087  27.881500  -1.331210  -2.514510  31.425500  -0.001267  -0.002806  20.929400  -0.005781  -0.005587  27.913900  -1.442840  -2.721250  31.662700  -0.001540  -0.012263  21.087300  -0.002723  -0.003910  31.980600  -1.631960  -2.612340  48.015200  -0.005898  -0.005957  31.978100  -0.005404  -0.004755   3.852710   2.035800  -0.540897   0.449925   0.066453   9.658280  -4.212390  -2.422450  -1.566220  -0.000000   0.000000  -0.000000  -1.690380   3.653370  -4.731630   1.961070   0.366943 -13.944200  -0.131705  -3.628480  -0.532297  -0.000000   0.000000  -0.000000
  0.312950  89.397000   0.284822  -1.025900   0.238097   4.521170   0.892708   1.805450  -0.609888   1.806010   3.601090  -1.248730  -1.223240   0.980168   0.030746  -2.012860   1.984740   1.453660  -5.173460   1.644630   8.364330 -79.596700   3.708650  -0.164514   0.324001   6.205330 -16.824500   7.002080  -3.430230  -1.933520  39.495800  32.767400 -51.824300 -32.737300  -0.003406   0.007552 -11.368600  -0.001839   0.002104 -26.537500  -1.586830   3.172040 -21.748100   0.002015   0.006466 -15.223700   0.007534   0.003848 -28.374800  -4.012570   7.382610 -37.868400  -0.001450  -0.002190 -25.220400  -0.001761  -0.001067 -25.201700  -3.577930   7.553450 -25.437500  -0.006373   0.007615 -16.941400  -0.007165   0.010101 -25.289200  -3.889390   8.171550 -38.353100  -0.003605  -0.000098 -25.543200  -0.004894  -0.004637   7.914810   5.206770   7.429820  67.945100  -2.485570  -1.043950   3.127920  -2.840530  15.503800 -13.409000   0.210930   1.523630 -57.264200  50.097300 100.179000  20.433200   0.001603  -0.003922   5.216610   0.000837  -0.009518  28.728700   0.745474   1.358850  23.514000  -0.003911  -0.008414  16.464700  -0.005366  -0.003090  27.882900  -1.312670  -2.479080  31.446500  -0.001187  -0.002607  20.943300  -0.005749  -0.005584  27.915100  -1.427090  -2.691180  31.677500  -0.001526  -0.012279  21.097200  -0.002721  -0.003878  31.981900  -1.614390  -2.583490  48.023700  -0.005847  -0.005910  31.983800  -0.005358  -0.004747   3.859510   2.051530  -0.540551   0.450290   0.047241   9.658340  -4.218930  -2.419240  -1.565840  -0.000000   0.000000   0.000000  -1.690400   3.661620  -4.735160   1.969390   0.371869 -13.937600  -0.141569  -3.641060  -0.543836   0.000000   0.000000   0.000000
  0.299951  89.397100   0.297968  -1.024990   0.228933   4.529170   0.899129   1.812320  -0.610006   1.818890   3.614740  -1.249350  -1.234740   1.003990   0.030662  -2.030360   2.033180   1.485130  -5.231180   1.620560   8.357410 -79.617000   3.868910  -0.087080   0.452961   6.270240 -17.061100   6.936180  -3.516180  -1.809650  39.575500  32.908300 -52.062600 -32.733700  -0.003414   0.007587 -11.366900  -0.001819   0.002149 -26.548100  -1.490570   2.979580 -21.750000   0.002008   0.006409 -15.225000   0.007527   0.003875 -28.367600  -4.037860   7.429980 -37.860900  -0.001369  -0.002136 -25.215400  -0.001745  -0.000945 -25.138200  -3.554720   7.527750 -25.372400  -0.006368   0.007599 -16.898000  -0.007159   0.010090 -25.326600  -3.909980   8.202390 -38.415100  -0.003581  -0.000144 -25.584500  -0.004871  -0.004646   7.933480   5.154740   7.482770  67.914400  -2.391190  -0.997366   3.048750  -2.711820  15.495900 -13.453200   0.443200   1.553390 -57.772000  50.350800 100.810000  20.334600   0.001623  -0.005931   5.167330   0.000844  -0.009525  28.728200   0.800788   1.459620  23.516400  -0.003920  -0.008425  16.461500  -0.005374  -0.003094  27.886100  -1.252830  -2.365740  31.467500  -0.001106  -0.002407  20.957300  -0.005679  -0.005581  27.917800  -1.375840  -2.594370  31.692300  -0.001511  -0.012311  21.107100  -0.002716  -0.003814  31.984500  -1.556370  -2.490920  48.032300  -0.005732  -0.005800  31.989500  -0.005253  -0.004727   3.872810   2.075390  -0.540208   0.450654   0.028028   9.658790  -4.230820  -2.416020  -1.565470   0.000000   0.000000   0.000000  -1.689080   3.681820  -4.744110   1.982940   0.376816 -13.919100  -0.157721  -3.659210  -0.563048  -0.000000   0.000000   0.000000
  0.293029  89.397200   0.309269  -1.023770   0.213007   4.526170   0.908181   1.826050  -0.622161   1.837500   3.641840  -1.274270  -1.249850   1.019080   0.030438  -2.055210   2.063290   1.555080  -5.318100   1.612740   8.368970 -79.628100   3.977390   0.075884   0.465190   6.277950 -17.612800   6.975840  -3.114440  -1.584770  39.868800  33.358100 -52.493400 -32.648700  -0.003409   0.007637 -11.324400  -0.001779   0.002205 -26.467100  -1.404700   2.819810 -21.680200   0.001995   0.006325 -15.176100   0.007518   0.003916 -28.354700  -4.009880   7.382010 -37.654300  -0.001248  -0.002112 -25.077800  -0.001720  -0.000894 -24.986400  -3.500160   7.466950 -25.217600  -0.006360   0.007573 -16.794900  -0.007149   0.010072 -25.247900  -3.822380   8.048240 -38.281200  -0.003544  -0.000210 -25.495300  -0.004836  -0.004659   7.917790   5.124460   7.507690  67.911600  -2.223230  -0.892673   2.971980  -2.443240  15.544900 -13.547400   0.923781   1.600110 -58.578900  50.719700 101.771000  20.101800   0.001648  -0.007862   5.050930   0.000850  -0.009538  28.694900   0.907129   1.655560  23.493100  -0.003934  -0.008446  16.443800  -0.005386  -0.003096  27.880700  -1.143940  -2.160810  31.413500  -0.001288  -0.002456  20.921300  -0.005580  -0.005581  27.910100  -1.282170  -2.418780  31.625000  -0.001543  -0.012357  21.062200  -0.002707  -0.003729  31.952600  -1.449410  -2.323460  47.979300  -0.005565  -0.005638  31.954300  -0.005104  -0.004695   3.887760   2.082630  -0.541908   0.445071   0.068133   9.662090  -4.244380  -2.445050  -1.566790   0.000000   0.000000   0.000000  -1.685440   3.709670  -4.758650   1.993380   0.370276 -13.887000  -0.170081  -3.666050  -0.579616   0.000000   0.000000   0.000000
